<?xml version="1.0" encoding="utf-8"?>
<!-- Generator: Adobe Illustrator 21.1.0, SVG Export Plug-In . SVG Version: 6.00 Build 0)  -->
<!DOCTYPE svg PUBLIC "-//W3C//DTD SVG 1.1//EN" "http://www.w3.org/Graphics/SVG/1.1/DTD/svg11.dtd">
<svg version="1.1" xmlns="http://www.w3.org/2000/svg" xmlns:xlink="http://www.w3.org/1999/xlink" x="0px" y="0px"
	 viewBox="0 0 975.1 273.1" style="enable-background:new 0 0 975.1 273.1;" xml:space="preserve">
<style type="text/css">
	.st0{fill:#F1F1F1;}
	.st1{fill:#7D93CC;}
	.st2{fill:#FFC328;}
	.st3{fill:#FFFFFF;}
	.st4{fill:#BBC4F8;}
</style>
<g id="Sparkles">
	<g id="Layer_2_1_">
	</g>
	<path id="Sparkle_Light_Grey" class="st0" d="M493,77.2L493,77.2c-10.9,1.3-19.5,9.9-20.8,20.8v0v0c-1.3-10.9-9.9-19.5-20.8-20.8
		l0,0l0,0c10.9-1.3,19.5-9.9,20.8-20.8v0v0C473.5,67.3,482.1,75.9,493,77.2L493,77.2z"/>
	<path id="Sparkle_Light_Grey_1_" class="st0" d="M373.2,235L373.2,235c-10.9,1.3-19.5,9.9-20.8,20.8v0v0
		c-1.3-10.9-9.9-19.5-20.8-20.8l0,0l0,0c10.9-1.3,19.5-9.9,20.8-20.8v0v0C353.7,225.1,362.3,233.7,373.2,235L373.2,235z"/>
	<path id="Sparkle_Light_Grey_2_" class="st0" d="M198.4,214.2L198.4,214.2c-10.9,1.3-19.5,9.9-20.8,20.8v0v0
		c-1.3-10.9-9.9-19.5-20.8-20.8h0h0c10.9-1.3,19.5-9.9,20.8-20.8v0v0C178.9,204.3,187.5,212.9,198.4,214.2L198.4,214.2z"/>
	<path id="Sparkle_Light_Grey_3_" class="st0" d="M956,235L956,235c-10.9,1.3-19.5,9.9-20.8,20.8v0v0c-1.3-10.9-9.9-19.5-20.8-20.8
		l0,0l0,0c10.9-1.3,19.5-9.9,20.8-20.8v0v0C936.5,225.1,945.1,233.7,956,235L956,235z"/>
	<path id="Sparkle_Purple" class="st1" d="M744.9,235L744.9,235c-10.9,1.3-19.5,9.9-20.8,20.8v0v0c-1.3-10.9-9.9-19.5-20.8-20.8l0,0
		l0,0c10.9-1.3,19.5-9.9,20.8-20.8v0v0C725.4,225.1,734,233.7,744.9,235L744.9,235z"/>
	<path id="Sparkle_Purple_3_" class="st1" d="M60.7,235L60.7,235c-10.9,1.3-19.5,9.9-20.8,20.8l0,0v0c-1.3-10.9-9.9-19.5-20.8-20.8
		h0h0c10.9-1.3,19.5-9.9,20.8-20.8v0l0,0C41.2,225.1,49.8,233.7,60.7,235L60.7,235z"/>
	<path id="Sparkle_Purple_2_" class="st1" d="M956,56.1L956,56.1c-10.9,1.3-19.5,9.9-20.8,20.8v0v0c-1.3-10.9-9.9-19.5-20.8-20.8
		l0,0v0c10.9-1.3,19.5-9.9,20.8-20.8v0v0C936.5,46.2,945.1,54.8,956,56.1L956,56.1z"/>
	<path id="Sparkle_Purple_1_" class="st1" d="M352.4,74.7L352.4,74.7c-10.9,1.3-19.5,9.9-20.8,20.8v0v0
		c-1.3-10.9-9.9-19.5-20.8-20.8h0l0,0c10.9-1.3,19.5-9.9,20.8-20.8v0v0C332.9,64.8,341.5,73.4,352.4,74.7L352.4,74.7z"/>
	<path id="Sparkle_Gold" class="st2" d="M223.6,38.7L223.6,38.7c-10.9,1.3-19.5,9.9-20.8,20.8v0l0,0c-1.3-10.9-9.9-19.5-20.8-20.8
		l0,0l0,0c10.9-1.3,19.5-9.9,20.8-20.8l0,0v0C204.1,28.8,212.7,37.4,223.6,38.7L223.6,38.7z"/>
	<path id="Sparkle_Gold_2_" class="st2" d="M502,214.2L502,214.2c-10.9,1.3-19.5,9.9-20.8,20.8v0v0c-1.3-10.9-9.9-19.5-20.8-20.8
		l0,0l0,0c10.9-1.3,19.5-9.9,20.8-20.8v0v0C482.5,204.3,491.1,212.9,502,214.2L502,214.2z"/>
	<path id="Sparkle_Gold_1_" class="st2" d="M809.4,80.3L809.4,80.3c-10.9,1.3-19.5,9.9-20.8,20.8v0v0c-1.3-10.9-9.9-19.5-20.8-20.8
		l0,0v0c10.9-1.3,19.5-9.9,20.8-20.8v0v0C789.9,70.4,798.5,79,809.4,80.3L809.4,80.3z"/>
</g>
<g id="TR_SIgns">
	<g>
		<circle class="st0" cx="869" cy="169.5" r="59.2"/>
		<g>
			<g>
				<g>
					<path class="st3" d="M894.6,190.8c-0.9,0-1.9-0.3-2.6-0.9l-17.3-13.2c0,0,0,0,0,0c-2.4,8.1-10.1,14.2-18.7,14.2
						c-4.8,0-9-1.9-12-5.3c-3-3.4-4.3-8-3.6-12.8l2-14h-13.2l1.5-8.7h39.3c0,0-6.2,3.1-6.5,8.7h-12.3L849,174
						c-0.3,2.2,0.2,4.3,1.5,5.8c1.3,1.5,3.2,2.3,5.4,2.3c5,0,9.9-4.3,10.6-9.3l1.3-9.5c1-7.4,7.6-13.1,15-13.1h6.8
						c3.8,0,7.2,1.5,9.5,4.2c2.4,2.7,3.4,6.4,2.9,10.1c-0.9,6.4-6.1,11.7-12.3,12.9l7.4,5.7c1.9,1.5,9.7,7.8,9.7,7.8H894.6z
						 M882.8,158.8c-3,0-5.9,2.6-6.4,5.6l-0.6,4.4h11.2c3,0,5.9-2.6,6.4-5.6c0.2-1.3-0.1-2.4-0.8-3.2c-0.7-0.8-1.7-1.2-2.9-1.2
						H882.8z"/>
				</g>
			</g>
		</g>
	</g>
	<g>
		
			<ellipse transform="matrix(0.9567 -0.2911 0.2911 0.9567 -37.0438 90.0504)" class="st0" cx="284.1" cy="169.5" rx="59.2" ry="59.2"/>
		<g>
			<g>
				<g>
					<path class="st3" d="M314.8,182.5c-0.9,0.3-1.9,0.3-2.8-0.1l-20.5-7.6c0,0,0,0,0,0c0.1,8.5-5.6,16.5-13.7,19
						c-4.5,1.4-9.2,0.8-13-1.6c-3.9-2.4-6.4-6.4-7.2-11.2l-2.2-13.9l-12.6,3.8l-1.1-8.8l37.6-11.4c0,0-5,4.8-3.7,10.2l-11.7,3.6
						l2.4,15.1c0.4,2.2,1.5,4.1,3.2,5.1c1.7,1,3.7,1.3,5.8,0.6c4.8-1.5,8.2-7,7.4-12l-1.5-9.5c-1.2-7.4,3.5-14.8,10.5-16.9l6.5-2
						c3.6-1.1,7.3-0.6,10.3,1.3c3,1.9,5.1,5.1,5.7,8.9c1,6.4-2.4,12.9-8,15.9l8.8,3.3c2.3,0.8,11.5,4.7,11.5,4.7L314.8,182.5z
						 M294.2,155.3c-2.9,0.9-4.9,4.2-4.5,7.2l0.7,4.4l10.7-3.3c2.9-0.9,4.9-4.2,4.5-7.2c-0.2-1.2-0.8-2.3-1.7-2.8
						c-0.9-0.6-2-0.7-3.2-0.3L294.2,155.3z"/>
				</g>
			</g>
		</g>
	</g>
	<g>
		
			<ellipse transform="matrix(0.4303 -0.9027 0.9027 0.4303 -43.4014 161.2759)" class="st0" cx="106.1" cy="115" rx="59.2" ry="59.2"/>
		<g>
			<g>
				<g>
					<path class="st3" d="M120,145.3c-0.8-0.4-1.5-1.1-2-1.9l-10-19.4c0,0,0,0,0,0c-5.7,6.3-15.2,8.4-22.9,4.7
						c-4.3-2-7.3-5.6-8.5-9.9c-1.2-4.4-0.4-9,2.2-13.1l7.8-11.8l-11.9-5.7l5.1-7.2l35.5,16.9c0,0-6.9,0.2-9.6,5.1l-11.1-5.3
						L86,110.5c-1.3,1.9-1.6,4-1.1,5.9c0.5,1.9,1.9,3.4,3.9,4.4c4.5,2.2,10.8,0.4,13.6-3.9l5.3-8c4.1-6.2,12.5-8.6,19.2-5.4l6.2,2.9
						c3.4,1.6,5.8,4.4,6.8,7.9c1,3.5,0.3,7.2-1.8,10.4c-3.6,5.4-10.5,7.9-16.6,6.3l4.3,8.3c1.1,2.1,5.4,11.2,5.4,11.2L120,145.3z
						 M123.1,111.3c-2.7-1.3-6.5-0.2-8.2,2.3l-2.5,3.7l10.1,4.8c2.7,1.3,6.5,0.2,8.2-2.3c0.7-1.1,0.9-2.2,0.6-3.2
						c-0.3-1-1-1.8-2.1-2.4L123.1,111.3z"/>
				</g>
			</g>
		</g>
	</g>
	<g>
		
			<ellipse transform="matrix(0.1189 -0.9929 0.9929 0.1189 470.9976 808.4525)" class="st0" cx="691" cy="138.9" rx="59.2" ry="59.2"/>
		<g>
			<g>
				<g>
					<path class="st3" d="M713.8,163.1c-0.9-0.1-1.8-0.5-2.5-1.2l-15.7-15.2c0,0,0,0,0,0c-3.3,7.8-11.7,12.9-20.2,11.8
						c-4.7-0.6-8.7-2.9-11.3-6.7c-2.6-3.8-3.3-8.4-2.1-13.1l3.6-13.6l-13.1-1.6l2.5-8.5l39,4.7c0,0-6.5,2.4-7.5,7.9l-12.2-1.5
						l-3.9,14.8c-0.6,2.2-0.3,4.3,0.8,6c1.1,1.6,2.9,2.6,5.1,2.9c5,0.6,10.3-3.1,11.6-8l2.5-9.3c1.9-7.2,9.1-12.1,16.5-11.3l6.8,0.8
						c3.7,0.4,6.9,2.3,8.9,5.3c2,3,2.6,6.8,1.7,10.4c-1.7,6.3-7.4,10.9-13.7,11.3l6.7,6.5c1.7,1.7,8.7,8.9,8.7,8.9L713.8,163.1z
						 M706,129.9c-3-0.4-6.2,1.9-7,4.8l-1.1,4.3l11.1,1.3c3,0.4,6.2-1.9,7-4.8c0.3-1.2,0.2-2.4-0.4-3.3c-0.6-0.9-1.6-1.4-2.8-1.6
						L706,129.9z"/>
				</g>
			</g>
		</g>
	</g>
</g>
<g id="Layer_6">
	<circle class="st4" cx="487.5" cy="136.5" r="121.4"/>
</g>
</svg>
